<?xml version="1.0" encoding="us-ascii" standalone="no"?><svg xmlns="http://www.w3.org/2000/svg" xmlns:xlink="http://www.w3.org/1999/xlink" contentStyleType="text/css" height="618px" preserveAspectRatio="none" style="width:415px;height:618px;background:#FFFFFF;" version="1.1" viewBox="0 0 415 618" width="415px" zoomAndPan="magnify"><defs/><g><!--entity client--><g id="elem_client"><rect fill="#E8F6F3" height="39.0679" rx="2.5" ry="2.5" style="stroke:#2C3E50;stroke-width:2.0;" width="146" x="18.5" y="130"/><text fill="#2C3E50" font-family="Arial" font-size="14" lengthAdjust="spacing" textLength="126" x="28.5" y="154.9659">Client Applications</text></g><!--entity sensor--><g id="elem_sensor"><rect fill="#E8F6F3" height="58.1358" rx="2.5" ry="2.5" style="stroke:#2C3E50;stroke-width:2.0;" width="116" x="114.5" y="12"/><text fill="#2C3E50" font-family="Arial" font-size="14" lengthAdjust="spacing" textLength="96" x="124.5" y="36.9659">Python Sensor</text><text fill="#2C3E50" font-family="Arial" font-size="14" lengthAdjust="spacing" textLength="65" x="124.5" y="56.0339">Simulator</text></g><!--entity kafka--><g id="elem_kafka"><path d="M205,135 L306,135 C311,135 311,149.534 311,149.534 C311,149.534 311,164.0679 306,164.0679 L205,164.0679 C200,164.0679 200,149.534 200,149.534 C200,149.534 200,135 205,135 " fill="#FFE5CC" style="stroke:#2C3E50;stroke-width:1.0;"/><path d="M306,135 C301,135 301,149.534 301,149.534 C301,164.0679 306,164.0679 306,164.0679 " fill="none" style="stroke:#2C3E50;stroke-width:1.0;"/><text fill="#2C3E50" font-family="Arial" font-size="14" lengthAdjust="spacing" textLength="91" x="205" y="154.9659">Apache Kafka</text></g><!--entity zookeeper--><g id="elem_zookeeper"><rect fill="#FFE5CC" height="39.0679" rx="2.5" ry="2.5" style="stroke:#2C3E50;stroke-width:2.0;" width="144" x="265.5" y="21.5"/><text fill="#2C3E50" font-family="Arial" font-size="14" lengthAdjust="spacing" textLength="124" x="275.5" y="46.4659">Apache Zookeeper</text></g><!--entity express--><g id="elem_express"><rect fill="#D5EAF2" height="39.0679" rx="2.5" ry="2.5" style="stroke:#2C3E50;stroke-width:2.0;" width="159" x="12" y="229"/><text fill="#2C3E50" font-family="Arial" font-size="14" lengthAdjust="spacing" textLength="139" x="22" y="253.9659">Node Express Server</text></g><!--entity graphql--><g id="elem_graphql"><rect fill="#D5EAF2" height="39.0679" rx="2.5" ry="2.5" style="stroke:#2C3E50;stroke-width:2.0;" width="106" x="38.5" y="328"/><text fill="#2C3E50" font-family="Arial" font-size="14" lengthAdjust="spacing" textLength="86" x="48.5" y="352.9659">GraphQL API</text></g><!--entity mongodb--><g id="elem_mongodb"><path d="M48.5,437 C48.5,427 91.5,427 91.5,427 C91.5,427 134.5,427 134.5,437 L134.5,465.0679 C134.5,475.0679 91.5,475.0679 91.5,475.0679 C91.5,475.0679 48.5,475.0679 48.5,465.0679 L48.5,437 " fill="#D5EAF2" style="stroke:#2C3E50;stroke-width:1.0;"/><path d="M48.5,437 C48.5,447 91.5,447 91.5,447 C91.5,447 134.5,447 134.5,437 " fill="none" style="stroke:#2C3E50;stroke-width:1.0;"/><text fill="#2C3E50" font-family="Arial" font-size="14" lengthAdjust="spacing" textLength="66" x="58.5" y="465.9659">MongoDB</text></g><!--link client to express--><g id="link_client_express"><path d="M81.19,169.2 C77.93,186.38 76.8195,205.8055 80.0795,222.9555 " fill="none" id="client-to-express" style="stroke:#7F8C8D;stroke-width:1.0;"/><polygon fill="#7F8C8D" points="81.2,228.85,83.4489,219.2613,80.2663,223.938,75.5897,220.7553,81.2,228.85" style="stroke:#7F8C8D;stroke-width:1.0;"/></g><!--link express to client--><g id="link_express_client"><path d="M102.4,228.85 C105.86,211.7 107.0513,192.2626 103.6013,175.0826 " fill="none" id="express-to-client" style="stroke:#7F8C8D;stroke-width:1.0;"/><polygon fill="#7F8C8D" points="102.42,169.2,100.2703,178.8114,103.4044,174.1021,108.1137,177.2363,102.42,169.2" style="stroke:#7F8C8D;stroke-width:1.0;"/></g><!--link sensor to kafka--><g id="link_sensor_kafka"><path d="M194.52,70.26 C210.76,91.09 228.4429,113.7766 241.0929,130.0166 " fill="none" id="sensor-to-kafka" style="stroke:#7F8C8D;stroke-width:1.0;"/><polygon fill="#7F8C8D" points="244.78,134.75,242.405,125.1918,241.7074,130.8055,236.0938,130.1079,244.78,134.75" style="stroke:#7F8C8D;stroke-width:1.0;"/></g><!--link zookeeper to kafka--><g id="link_zookeeper_kafka"><path d="M323.22,60.55 C306.88,81.77 284.1797,111.2454 269.6397,130.1354 " fill="none" id="zookeeper-to-kafka" style="stroke:#7F8C8D;stroke-width:1.0;"/><polygon fill="#7F8C8D" points="265.98,134.89,274.6393,130.1979,269.0298,130.9278,268.2998,125.3183,265.98,134.89" style="stroke:#7F8C8D;stroke-width:1.0;"/></g><!--link kafka to express--><g id="link_kafka_express"><path d="M232.35,164.19 C203.74,181.11 160.1044,206.9256 128.1144,225.8456 " fill="none" id="kafka-to-express" style="stroke:#7F8C8D;stroke-width:1.0;"/><polygon fill="#7F8C8D" points="122.95,228.9,132.7328,227.7613,127.2536,226.3547,128.6603,220.8755,122.95,228.9" style="stroke:#7F8C8D;stroke-width:1.0;"/></g><!--link express to graphql--><g id="link_express_graphql"><path d="M81.19,268.2 C77.93,285.38 76.8195,304.8055 80.0795,321.9555 " fill="none" id="express-to-graphql" style="stroke:#7F8C8D;stroke-width:1.0;"/><polygon fill="#7F8C8D" points="81.2,327.85,83.4489,318.2613,80.2663,322.938,75.5897,319.7553,81.2,327.85" style="stroke:#7F8C8D;stroke-width:1.0;"/></g><!--link graphql to express--><g id="link_graphql_express"><path d="M102.4,327.85 C105.86,310.7 107.0513,291.2626 103.6013,274.0826 " fill="none" id="graphql-to-express" style="stroke:#7F8C8D;stroke-width:1.0;"/><polygon fill="#7F8C8D" points="102.42,268.2,100.2703,277.8114,103.4044,273.1021,108.1137,276.2363,102.42,268.2" style="stroke:#7F8C8D;stroke-width:1.0;"/></g><!--link graphql to mongodb--><g id="link_graphql_mongodb"><path d="M81.37,367.12 C78.15,383.94 77.0148,402.8357 79.7148,420.9357 " fill="none" id="graphql-to-mongodb" style="stroke:#7F8C8D;stroke-width:1.0;"/><polygon fill="#7F8C8D" points="80.6,426.87,83.2284,417.3783,79.8623,421.9247,75.3159,418.5586,80.6,426.87" style="stroke:#7F8C8D;stroke-width:1.0;"/></g><!--link mongodb to graphql--><g id="link_mongodb_graphql"><path d="M103.04,426.87 C105.9,408.77 106.8188,389.8211 103.4188,373.0011 " fill="none" id="mongodb-to-graphql" style="stroke:#7F8C8D;stroke-width:1.0;"/><polygon fill="#7F8C8D" points="102.23,367.12,100.0925,376.7341,103.2207,372.0209,107.9339,375.149,102.23,367.12" style="stroke:#7F8C8D;stroke-width:1.0;"/></g><rect fill="none" height="109.3396" id="_legend" rx="7.5" ry="7.5" style="stroke:#000000;stroke-width:1.0;" width="290" x="106.5" y="496.0679"/><text fill="#000000" font-family="Arial" font-size="14" font-weight="bold" lengthAdjust="spacing" textLength="82" x="115.5" y="518.0339">Component</text><text fill="#000000" font-family="Arial" font-size="14" font-weight="bold" lengthAdjust="spacing" textLength="33" x="240.5" y="518.0339">Type</text><rect fill="#FFE5CC" height="19.0679" style="stroke:none;stroke-width:1.0;" width="125" x="111.5" y="522.1358"/><text fill="#000000" font-family="Arial" font-size="14" lengthAdjust="spacing" textLength="112" x="115.5" y="537.1018">Kafka/Zookeeper</text><text fill="#000000" font-family="Arial" font-size="14" lengthAdjust="spacing" textLength="108" x="240.5" y="537.1018">Message Broker</text><rect fill="#E8F6F3" height="19.0679" style="stroke:none;stroke-width:1.0;" width="125" x="111.5" y="541.2038"/><text fill="#000000" font-family="Arial" font-size="14" lengthAdjust="spacing" textLength="90" x="115.5" y="556.1697">Client/Sensor</text><text fill="#000000" font-family="Arial" font-size="14" lengthAdjust="spacing" textLength="147" x="240.5" y="556.1697">Frontend/Data Source</text><rect fill="#D5EAF2" height="19.0679" style="stroke:none;stroke-width:1.0;" width="125" x="111.5" y="560.2717"/><text fill="#000000" font-family="Arial" font-size="14" lengthAdjust="spacing" textLength="117" x="115.5" y="575.2376">Express/GraphQL</text><text fill="#000000" font-family="Arial" font-size="14" lengthAdjust="spacing" textLength="81" x="240.5" y="575.2376">API Services</text><rect fill="#D5EAF2" height="19.0679" style="stroke:none;stroke-width:1.0;" width="125" x="111.5" y="579.3396"/><text fill="#000000" font-family="Arial" font-size="14" lengthAdjust="spacing" textLength="66" x="115.5" y="594.3055">MongoDB</text><text fill="#000000" font-family="Arial" font-size="14" lengthAdjust="spacing" textLength="63" x="240.5" y="594.3055">Database</text><line style="stroke:#000000;stroke-width:1.0;" x1="111.5" x2="391.5" y1="503.0679" y2="503.0679"/><line style="stroke:#000000;stroke-width:1.0;" x1="111.5" x2="391.5" y1="522.1358" y2="522.1358"/><line style="stroke:#000000;stroke-width:1.0;" x1="111.5" x2="391.5" y1="541.2038" y2="541.2038"/><line style="stroke:#000000;stroke-width:1.0;" x1="111.5" x2="391.5" y1="560.2717" y2="560.2717"/><line style="stroke:#000000;stroke-width:1.0;" x1="111.5" x2="391.5" y1="579.3396" y2="579.3396"/><line style="stroke:#000000;stroke-width:1.0;" x1="111.5" x2="391.5" y1="598.4075" y2="598.4075"/><line style="stroke:#000000;stroke-width:1.0;" x1="111.5" x2="111.5" y1="503.0679" y2="598.4075"/><line style="stroke:#000000;stroke-width:1.0;" x1="236.5" x2="236.5" y1="503.0679" y2="598.4075"/><line style="stroke:#000000;stroke-width:1.0;" x1="391.5" x2="391.5" y1="503.0679" y2="598.4075"/><!--SRC=[hLB1SjCm5BphAnx9WLCdfPsK720pZcCp3BHJI4y43ehzQciiIwuaKrB2loDPbcC2tEg3RUrRwUtRrGjJOetGSCe4qHKJ3LMqXXtDgaB9LkInv5B1OyaCZkevtjEMcrGASqFj_aWnoaVrI2dvwBTEhxfdLCnatKY1mcpCdYCep0mL1KT2NaBSQYDhqBR2HF6lJV2JW7rMKkMe-XONyMKoF-zm9-blT7KoppI9q_FqLLSRQtsTBkB5UjJWhcHP9L1hk22_oDW1QkYEQdmUEUjv4gKd7HvQR9_f-3HDvd7iZhSE1oCrsSQSEKUZfk4ieuP9eRy1rP1vV9eiqglqacnlzwQK0ZOej5HVnORLBQT6gewiEtGWUzcJgA5PYV21tbTqucYL-oFR7lyYPONOe3_YAQm6gTiRcICaFnhblD-W-jvJiOU2PTjtYZRbfuyGtRxl28LRF_21C0GrkPQYaEjLfwPs__dE6V8PkH-Tz6EVdIr36nBQESoNIJ-lG_nCH_L7h7l_zwHU8mbQnxmn5bJstp_s4eu5YXmKAqfZOp-yFKRh5dVx1k7W2czwKvS-ZTdWFHpWshQa1S9AMKm5lezo2Vv-p7pkbfqgUzziqzdQcWeRsQfiwE7jNeRCPY6NWqkcIv1bg4_PVIQMjGuv7OZju8SZlm40]--></g></svg>