<?xml version="1.0" encoding="us-ascii" standalone="no"?><svg xmlns="http://www.w3.org/2000/svg" xmlns:xlink="http://www.w3.org/1999/xlink" contentStyleType="text/css" height="737px" preserveAspectRatio="none" style="width:378px;height:737px;background:#FFFFFF;" version="1.1" viewBox="0 0 378 737" width="378px" zoomAndPan="magnify"><defs/><g><text fill="#000000" font-family="Arial" font-size="22" font-weight="bold" lengthAdjust="spacing" textLength="232" x="68.75" y="43.5181">Services architecture</text><!--entity sensor--><g id="elem_sensor"><rect fill="#918EF4" height="68.1358" rx="7.5" ry="7.5" style="stroke:#000000;stroke-width:1.0;" width="126" x="225" y="72.9641"/><text fill="#000000" font-family="Arial" font-size="14" lengthAdjust="spacing" textLength="96" x="240" y="102.93">Python Sensor</text><text fill="#000000" font-family="Arial" font-size="14" lengthAdjust="spacing" textLength="65" x="240" y="121.998">Simulator</text></g><!--entity kafka--><g id="elem_kafka"><path d="M232.5,200.9641 L343.5,200.9641 C348.5,200.9641 348.5,220.4981 348.5,220.4981 C348.5,220.4981 348.5,240.032 343.5,240.032 L232.5,240.032 C227.5,240.032 227.5,220.4981 227.5,220.4981 C227.5,220.4981 227.5,200.9641 232.5,200.9641 " fill="#6F9CEB" style="stroke:#000000;stroke-width:1.0;"/><path d="M343.5,200.9641 C338.5,200.9641 338.5,220.4981 338.5,220.4981 C338.5,240.032 343.5,240.032 343.5,240.032 " fill="none" style="stroke:#000000;stroke-width:1.0;"/><text fill="#000000" font-family="Arial" font-size="14" lengthAdjust="spacing" textLength="91" x="237.5" y="225.93">Apache Kafka</text></g><!--entity server--><g id="elem_server"><rect fill="#306BAC" height="68.1358" rx="7.5" ry="7.5" style="stroke:#000000;stroke-width:1.0;" width="169" x="203.5" y="299.9641"/><text fill="#000000" font-family="Arial" font-size="14" lengthAdjust="spacing" textLength="139" x="218.5" y="329.93">Node Express Server</text><text fill="#000000" font-family="Arial" font-size="14" lengthAdjust="spacing" textLength="86" x="218.5" y="348.998">GraphQL API</text></g><!--entity mongodb--><g id="elem_mongodb"><path d="M240,437.9641 C240,427.9641 288,427.9641 288,427.9641 C288,427.9641 336,427.9641 336,437.9641 L336,476.032 C336,486.032 288,486.032 288,486.032 C288,486.032 240,486.032 240,476.032 L240,437.9641 " fill="#30409C" style="stroke:#000000;stroke-width:1.0;"/><path d="M240,437.9641 C240,447.9641 288,447.9641 288,447.9641 C288,447.9641 336,447.9641 336,437.9641 " fill="none" style="stroke:#000000;stroke-width:1.0;"/><text fill="#000000" font-family="Arial" font-size="14" lengthAdjust="spacing" textLength="66" x="255" y="471.93">MongoDB</text></g><!--entity client--><g id="elem_client"><rect fill="#98B9F2" height="49.0679" rx="7.5" ry="7.5" style="stroke:#000000;stroke-width:1.0;" width="156" x="12" y="309.4641"/><text fill="#000000" font-family="Arial" font-size="14" lengthAdjust="spacing" textLength="126" x="27" y="339.43">Client Applications</text></g><!--link sensor to kafka--><g id="link_sensor_kafka"><path d="M288,141.1141 C288,160.6341 288,178.5941 288,194.8441 " fill="none" id="sensor-to-kafka" style="stroke:#666666;stroke-width:1.0;"/><polygon fill="#666666" points="288,200.8441,292,191.8441,288,195.8441,284,191.8441,288,200.8441" style="stroke:#666666;stroke-width:1.0;"/></g><!--link kafka to server--><g id="link_kafka_server"><path d="M288,240.1241 C288,256.3741 288,274.2941 288,293.7941 " fill="none" id="kafka-to-server" style="stroke:#666666;stroke-width:1.0;"/><polygon fill="#666666" points="288,299.7941,292,290.7941,288,294.7941,284,290.7941,288,299.7941" style="stroke:#666666;stroke-width:1.0;"/></g><!--link server to mongodb--><g id="link_server_mongodb"><path d="M276.5,368.0241 C274.67,386.7841 274.1201,404.0387 276.3101,421.9087 " fill="none" id="server-to-mongodb" style="stroke:#666666;stroke-width:1.0;"/><polygon fill="#666666" points="277.04,427.8641,279.9155,418.4444,276.4318,422.9012,271.9749,419.4175,277.04,427.8641" style="stroke:#666666;stroke-width:1.0;"/></g><!--reverse link server to mongodb--><g id="link_server_mongodb"><path d="M300.794,373.9926 C302.724,392.7526 301.92,409.9941 299.61,427.8641 " fill="none" id="server-backto-mongodb" style="stroke:#666666;stroke-width:1.0;"/><polygon fill="#666666" points="300.18,368.0241,297.122,377.3862,300.6917,372.9979,305.08,376.5675,300.18,368.0241" style="stroke:#666666;stroke-width:1.0;"/></g><!--reverse link client to server--><g id="link_client_server"><path d="M174.1019,351.9894 C185.8019,352.8994 191.53,352.5841 203.24,351.9541 " fill="none" id="client-backto-server" style="stroke:#666666;stroke-width:1.0;"/><polygon fill="#666666" points="168.12,351.5241,176.7827,356.2099,173.1049,351.9118,177.4031,348.234,168.12,351.5241" style="stroke:#666666;stroke-width:1.0;"/></g><!--link client to server--><g id="link_client_server"><path d="M168.12,316.4041 C179.82,315.4941 185.5387,315.0218 197.2487,315.6518 " fill="none" id="client-to-server" style="stroke:#666666;stroke-width:1.0;"/><polygon fill="#666666" points="203.24,315.9741,194.4679,311.4964,198.2472,315.7055,194.0381,319.4848,203.24,315.9741" style="stroke:#666666;stroke-width:1.0;"/></g><rect fill="none" height="217.4754" id="_legend" rx="7.5" ry="7.5" style="stroke:#000000;stroke-width:1.0;" width="342" x="17.5" y="507.032"/><text fill="#000000" font-family="Arial" font-size="14" lengthAdjust="spacing" textLength="54" x="27.5" y="531.998">Legend:</text><text fill="#000000" font-family="Arial" font-size="14" font-weight="bold" lengthAdjust="spacing" textLength="82" x="36.5" y="558.0659">Component</text><text fill="#000000" font-family="Arial" font-size="14" font-weight="bold" lengthAdjust="spacing" textLength="33" x="220.5" y="558.0659">Type</text><rect fill="#918EF4" height="29.0679" style="stroke:none;stroke-width:1.0;" width="184" x="27.5" y="567.1679"/><text fill="#000000" font-family="Arial" font-size="14" lengthAdjust="spacing" textLength="46" x="36.5" y="587.1338">Sensor</text><text fill="#000000" font-family="Arial" font-size="14" lengthAdjust="spacing" textLength="81" x="220.5" y="587.1338">Data Source</text><rect fill="#6F9CEB" height="29.0679" style="stroke:none;stroke-width:1.0;" width="184" x="27.5" y="596.2358"/><text fill="#000000" font-family="Arial" font-size="14" lengthAdjust="spacing" textLength="37" x="36.5" y="616.2017">Kafka</text><text fill="#000000" font-family="Arial" font-size="14" lengthAdjust="spacing" textLength="108" x="220.5" y="616.2017">Message Broker</text><rect fill="#98B9F2" height="29.0679" style="stroke:none;stroke-width:1.0;" width="184" x="27.5" y="625.3037"/><text fill="#000000" font-family="Arial" font-size="14" lengthAdjust="spacing" textLength="74" x="36.5" y="645.2696">Dashboard</text><text fill="#000000" font-family="Arial" font-size="14" lengthAdjust="spacing" textLength="61" x="220.5" y="645.2696">Frontend</text><rect fill="#306BAC" height="29.0679" style="stroke:none;stroke-width:1.0;" width="184" x="27.5" y="654.3716"/><text fill="#000000" font-family="Arial" font-size="14" lengthAdjust="spacing" textLength="164" x="36.5" y="674.3375">Express Server/GraphQL</text><text fill="#000000" font-family="Arial" font-size="14" lengthAdjust="spacing" textLength="81" x="220.5" y="674.3375">API Services</text><rect fill="#30409C" height="29.0679" style="stroke:none;stroke-width:1.0;" width="184" x="27.5" y="683.4395"/><text fill="#000000" font-family="Arial" font-size="14" lengthAdjust="spacing" textLength="66" x="36.5" y="703.4055">MongoDB</text><text fill="#000000" font-family="Arial" font-size="14" lengthAdjust="spacing" textLength="63" x="220.5" y="703.4055">Database</text><line style="stroke:#000000;stroke-width:1.0;" x1="27.5" x2="349.5" y1="538.0999" y2="538.0999"/><line style="stroke:#000000;stroke-width:1.0;" x1="27.5" x2="349.5" y1="567.1679" y2="567.1679"/><line style="stroke:#000000;stroke-width:1.0;" x1="27.5" x2="349.5" y1="596.2358" y2="596.2358"/><line style="stroke:#000000;stroke-width:1.0;" x1="27.5" x2="349.5" y1="625.3037" y2="625.3037"/><line style="stroke:#000000;stroke-width:1.0;" x1="27.5" x2="349.5" y1="654.3716" y2="654.3716"/><line style="stroke:#000000;stroke-width:1.0;" x1="27.5" x2="349.5" y1="683.4395" y2="683.4395"/><line style="stroke:#000000;stroke-width:1.0;" x1="27.5" x2="349.5" y1="712.5074" y2="712.5074"/><line style="stroke:#000000;stroke-width:1.0;" x1="27.5" x2="27.5" y1="538.0999" y2="712.5074"/><line style="stroke:#000000;stroke-width:1.0;" x1="211.5" x2="211.5" y1="538.0999" y2="712.5074"/><line style="stroke:#000000;stroke-width:1.0;" x1="349.5" x2="349.5" y1="538.0999" y2="712.5074"/><!--SRC=[RLDDRzim3BthLt39OQTWRTSLpR0PiDra6DOMMPFZBehDs89boQFaPK6x_pvzEFr8eakKnqVnaOz-Psji4Jh9XMBC2YiHHakaFw900voAMbWiR4yuOkmzvBsnkWLZTrAeYfb6g8uJR-6HWJkPfX9fLOkYKMWCN0HqvL-DeGVTgpBNf93W_5E8BdXPkhSW_blpegaeigGcsFhw8LBYXlVIphMozzn9Jabm6I8faTv6-lWgd00NkksqGcMNJYq2kJQugYIoVw6JVTImPoAC5ZjRQmLBL4RJBxKKRI-vrJG2Ri045CRJy-lP_9Bzxh5tmqexNjG8F_YcuO7M-9jJCf_ci-pru_UwH9ZzxSYFniyONOblnBlwvosaY-z34O_3-EFPLPRchEIMhxbnTUwqglHD5aYjlvThpxeyc-QlY-HI-D-qwwGek1LQcP1IH7mylSwcymi_WGUKCSw6nYQbtgf94XjWiOqz5cMnGTqU7NImlPv9tnrp9MwiGwC0DkYOaAXg-q9c4YjK9GGus7SRWC_X_lJrnIyuUHnZjUlmBHPplmo69OEjnxbmuwOCIzrJWOUvqSOa-dkYBjmvDtc5a95kaDxM3RDEtFEcNcjEvM7kdDms-xQFDKV_auDz-R1VboU_CF3yeHxc-gr8O5YPq_s6hNfLryc87h3_]--></g></svg>